<svg viewBox="0 0 24 24" xmlns="http://www.w3.org/2000/svg">
  <path
    d="M18.175 13.0008H3C2.71667 13.0008 2.47917 12.9049 2.2875 12.7133C2.09583 12.5216 2 12.2841 2 12.0008C2 11.7174 2.09583 11.4799 2.2875 11.2883
      C2.47917 11.0966 2.71667 11.0008 3 11.0008H18.175L14.3 7.10078C14.1167 6.91745 14.0208 6.68828 14.0125 6.41328C14.0042 6.13828 14.1 5.90078 14.3 5.70078
      C14.4833 5.51745 14.7167 5.42578 15 5.42578C15.2833 5.42578 15.5167 5.51745 15.7 5.70078L21.3 11.3008C21.4 11.4008 21.4708 11.5091 21.5125 11.6258
      C21.5542 11.7424 21.575 11.8674 21.575 12.0008C21.575 12.1341 21.5542 12.2591 21.5125 12.3758C21.4708 12.4924 21.4 12.6008 21.3 12.7008L15.7 18.3008
      C15.5167 18.4841 15.2875 18.5758 15.0125 18.5758C14.7375 18.5758 14.5 18.4841 14.3 18.3008C14.1 18.1008 14 17.8633 14 17.5883
      C14 17.3133 14.1 17.0758 14.3 16.8758L18.175 13.0008Z"
  />
</svg>
