<svg viewBox="0 0 24 24" xmlns="http://www.w3.org/2000/svg">
  <path
    d="M18.3002 5.7107C17.9102 5.3207 17.2802 5.3207 16.8902 5.7107L12.0002 10.5907L7.11022 5.7007C6.72022 5.3107 6.09021 5.3107 5.70021 5.7007
      C5.31021 6.0907 5.31021 6.7207 5.70021 7.1107L10.5902 12.0007L5.70021 16.8907C5.31021 17.2807 5.31021 17.9107 5.70021 18.3007
      C6.09021 18.6907 6.72022 18.6907 7.11022 18.3007L12.0002 13.4107L16.8902 18.3007C17.2802 18.6907 17.9102 18.6907 18.3002 18.3007
      C18.6902 17.9107 18.6902 17.2807 18.3002 16.8907L13.4102 12.0007L18.3002 7.1107C18.6802 6.7307 18.6802 6.0907 18.3002 5.7107V5.7107Z"
  />
</svg>
