<svg xmlns="http://www.w3.org/2000/svg" viewBox="0 0 24 24" >
  <path
    d="M11.1836,20.3051c0.0139,0.0196,0.0368,0.0265,0.0518,0.0447c0.0405,0.0498,0.0822,0.0941,0.1315,0.1352
      c0.0214,0.0179,0.0328,0.043,0.056,0.0593c0.0276,0.0195,0.0591,0.0272,0.0878,0.0435c0.023,0.0131,0.0428,0.0278,0.0667,0.039
      c0.0245,0.0115,0.0484,0.0211,0.074,0.0307c0.1135,0.0426,0.23,0.0704,0.3477,0.0704c0.0002,0,0.0002-0.0001,0.0004-0.0001
      S11.9998,20.7279,12,20.7279s0.0004-0.0001,0.0005-0.0001s0.0002,0.0001,0.0004,0.0001c0.1177,0,0.2342-0.0278,0.3477-0.0704
      c0.0256-0.0096,0.0494-0.0192,0.074-0.0307c0.0239-0.0112,0.0437-0.0259,0.0667-0.039c0.0287-0.0164,0.0602-0.024,0.0878-0.0435
      c0.0232-0.0164,0.0347-0.0414,0.0561-0.0593c0.0493-0.0411,0.0909-0.0854,0.1314-0.1352c0.015-0.0182,0.0379-0.0251,0.0518-0.0447
      l5.3496-7.5664c0.3193-0.4507,0.2119-1.0747-0.2393-1.3936c-0.4492-0.3193-1.0752-0.2114-1.3936,0.2393L13,16.5817V2.2719
      c0-0.5522-0.4478-1-1-1s-1,0.4478-1,1v14.3101l-3.5337-4.9976c-0.3179-0.4507-0.9414-0.5591-1.3936-0.2393
      c-0.4512,0.3188-0.5581,0.9429-0.2393,1.3936L11.1836,20.3051z"
  />
  <path
    d="M21.9443,14.3724c-0.5527,0-1,0.4473-1,1v5.5342H3.0557v-5.5342c0-0.5527-0.4478-1-1-1s-1,0.4473-1,1v6.5342
      c0,0.5527,0.4478,1,1,1h19.8887c0.5527,0,1-0.4473,1-1v-6.5342C22.9443,14.8197,22.4971,14.3724,21.9443,14.3724z"
  />
</svg>
