<svg viewBox="0 0 24 24" xmlns="http://www.w3.org/2000/svg">
  <path
    d="M4 20C3.45 20 2.97917 19.8042 2.5875 19.4125C2.19583 19.0208 2 18.55 2 18V6C2 5.45 2.19583 4.97917 2.5875 4.5875C2.97917 4.19583 3.45 4 4 4H8
      C8.28333 4 8.52083 4.09583 8.7125 4.2875C8.90417 4.47917 9 4.71667 9 5C9 5.28333 8.90417 5.52083 8.7125 5.7125C8.52083 5.90417 8.28333 6 8 6
      H4V18H20V6H16C15.7167 6 15.4792 5.90417 15.2875 5.7125C15.0958 5.52083 15 5.28333 15 5C15 4.71667 15.0958 4.47917 15.2875 4.2875
      C15.4792 4.09583 15.7167 4 16 4H20C20.55 4 21.0208 4.19583 21.4125 4.5875C21.8042 4.97917 22 5.45 22 6V18C22 18.55 21.8042 19.0208 21.4125 19.4125
      C21.0208 19.8042 20.55 20 20 20H4ZM11 11.6V5C11 4.71667 11.0958 4.47917 11.2875 4.2875C11.4792 4.09583 11.7167 4 12 4
      C12.2833 4 12.5208 4.09583 12.7125 4.2875C12.9042 4.47917 13 4.71667 13 5V11.6L14.9 9.7C15.0833 9.51667 15.3167 9.425 15.6 9.425
      C15.8833 9.425 16.1167 9.51667 16.3 9.7C16.4833 9.88333 16.575 10.1167 16.575 10.4C16.575 10.6833 16.4833 10.9167 16.3 11.1L12.7 14.7
      C12.5 14.9 12.2667 15 12 15C11.7333 15 11.5 14.9 11.3 14.7L7.7 11.1C7.51667 10.9167 7.425 10.6833 7.425 10.4C7.425 10.1167 7.51667 9.88333 7.7 9.7
      C7.88333 9.51667 8.11667 9.425 8.4 9.425C8.68333 9.425 8.91667 9.51667 9.1 9.7L11 11.6Z"
  />
</svg>
